<?xml version="1.0" encoding="utf-8"?>
<!-- Generator: Adobe Illustrator 24.0.0, SVG Export Plug-In . SVG Version: 6.00 Build 0)  -->
<svg version="1.1" id="home_icon_svg" xmlns="http://www.w3.org/2000/svg" xmlns:xlink="http://www.w3.org/1999/xlink" x="0px"
	 y="0px" viewBox="0 0 1000 200" style="enable-background:new 0 0 1000 200;" xml:space="preserve">
<style type="text/css">
	.st0{font-family:'ArialMT';}
	.st1{font-size:138.234px;}
</style>
<title>home_button</title>
<text transform="matrix(0.9621 0 0 1 171.4399 138.1143)" class="st0 st1">Services</text>
<g>
	<g>
		<path d="M101.5,45c-26.2,0-47.4,17.5-47.4,39h94.9C148.9,62.5,127.6,45,101.5,45z M101.5,58c-14.7,0-27.4,8.2-30.8,20
			c-0.3,1-1.4,1.7-2.6,1.7c-0.2,0-0.4,0-0.6-0.1c-1.4-0.3-2.3-1.4-2-2.6c4-13.7,18.7-23.3,35.9-23.3c1.5,0,2.6,1,2.6,2.2
			S102.9,58,101.5,58z"/>
	</g>
</g>
<g>
	<g>
		<path d="M101.5,38.5c-4.4,0-7.9,2.9-7.9,6.5v2.2h15.8V45C109.4,41.4,105.9,38.5,101.5,38.5z"/>
	</g>
</g>
<g>
	<g>
		<path d="M101.5,36.3c-5.8,0-10.5,3.9-10.5,8.7v2.2c0,1.2,1.2,2.2,2.6,2.2c1.5,0,2.6-1,2.6-2.2V45c0-2.4,2.4-4.3,5.3-4.3
			c2.9,0,5.3,1.9,5.3,4.3v2.2c0,1.2,1.2,2.2,2.6,2.2c1.5,0,2.6-1,2.6-2.2V45C112,40.2,107.3,36.3,101.5,36.3z"/>
	</g>
</g>
<g>
	<g>
		<path d="M58.5,88.9c-4.5-3.5-22.6-4.7-28-4.9c-0.7,0-1.4,0.2-2,0.6c-0.5,0.4-0.8,1-0.8,1.6v43.3c0,1.2,1.2,2.2,2.6,2.2h15.8
			c1.1,0,2.2-0.6,2.5-1.5c0.4-1,9.5-28.2,10.7-39.4C59.4,90,59.1,89.3,58.5,88.9z"/>
	</g>
</g>
<g>
	<g>
		<path d="M64.1,88.3c0.4,0.9,0.5,1.8,0.4,2.7c0,0.3-0.1,0.6-0.1,0.8c3.5,0.2,6.9,0.4,9.7,0.6l1.5,0.1c4.3,0.3,8.8,1.5,12.7,2.6
			c3.1,0.8,6.2,1.7,7.9,1.7c0,0,0.5,0,1.3,0h38.2c0.7,0,1.4-0.2,1.9-0.6l9.8-8H64.1z"/>
	</g>
</g>
<g>
	<g>
		<path d="M151.6,88.3H64.1c0.4,0.9,0.5,1.8,0.4,2.7c0,0.3-0.1,0.6-0.1,0.8c3.5,0.2,6.9,0.4,9.7,0.6l1.5,0.1c0,0,0,0,0.1,0h75.9
			c1.5,0,2.6-1,2.6-2.2S153,88.3,151.6,88.3z"/>
	</g>
</g>
<g>
	<g>
		<path d="M138.4,112.1l-18.4,6.5c-5.1,0.2-15.7-0.1-18.4,0c-2.7,0-16.4-3.6-14.2-4.3c0.4-0.2,1.6-0.2,3.7,0
			c12,0.8,31.6,2.8,31.6-4.3s-21.2-8.7-26.4-8.7s-13.7-3.8-21.1-4.3c-2.9-0.2-6.9-0.5-11-0.8c-1.7,9.3-6.5,22.8-9,29.4L83,135.9
			c10.5,3.2,17.6,7.4,39.5,0c0,0,31.6-11,31.6-17.3C154.2,113.4,146.9,109.7,138.4,112.1z"/>
	</g>
</g>
</svg>
