<?xml version="1.0" encoding="iso-8859-1"?>
<!-- Generator: Adobe Illustrator 19.0.0, SVG Export Plug-In . SVG Version: 6.00 Build 0)  -->
<svg version="1.1" id="Capa_1" xmlns="http://www.w3.org/2000/svg" xmlns:xlink="http://www.w3.org/1999/xlink" x="0px" y="0px"
	 viewBox="0 0 512 512" style="enable-background:new 0 0 512 512;" xml:space="preserve">
<g>
	<g>
		<path d="M298.667,43.078c-105.856,0-192,86.144-192,192h384C490.667,129.2,404.523,43.078,298.667,43.078z M298.667,107.078
			c-59.584,0-110.805,40.491-124.565,98.453c-1.152,4.907-5.525,8.213-10.368,8.213c-0.811,0-1.643-0.085-2.475-0.299
			c-5.717-1.344-9.259-7.104-7.915-12.821c16.043-67.648,75.797-114.88,145.323-114.88c5.888,0,10.667,4.779,10.667,10.667
			S304.555,107.078,298.667,107.078z"/>
	</g>
</g>
<g>
	<g>
		<path d="M298.667,11.078c-17.664,0-32,14.336-32,32v10.667h64V43.078C330.667,25.414,316.331,11.078,298.667,11.078z"/>
	</g>
</g>
<g>
	<g>
		<path d="M298.667,0.411C275.136,0.411,256,19.547,256,43.078v10.667c0,5.888,4.779,10.667,10.667,10.667
			s10.667-4.779,10.667-10.667V43.078c0-11.755,9.579-21.333,21.333-21.333c11.755,0,21.333,9.579,21.333,21.333v10.667
			c0,5.888,4.779,10.667,10.667,10.667s10.667-4.779,10.667-10.667V43.078C341.333,19.547,322.197,0.411,298.667,0.411z"/>
	</g>
</g>
<g>
	<g>
		<path d="M124.672,259.312c-18.283-17.323-91.392-22.933-113.365-24.235c-2.965,0-5.803,0.875-7.957,2.88
			C1.216,239.963,0,242.779,0,245.723v213.355c0,5.888,4.779,10.667,10.667,10.667h64c4.608,0,8.704-2.965,10.133-7.36
			c1.557-4.779,38.315-138.944,43.157-194.411C128.235,264.731,127.04,261.552,124.672,259.312z"/>
	</g>
</g>
<g>
	<g>
		<path d="M147.456,256.411c1.493,4.224,2.155,8.768,1.749,13.419c-0.107,1.259-0.32,2.773-0.469,4.117
			c14.08,0.875,27.989,2.176,39.189,3.2l5.995,0.555c17.493,1.579,35.477,7.552,51.328,12.843
			c12.416,4.139,25.259,8.405,32.064,8.405c0.149,0,2.133,0.021,5.248,0.128h154.773c2.837,0,5.547-1.131,7.552-3.115l39.552-39.552
			H147.456z"/>
	</g>
</g>
<g>
	<g>
		<path d="M501.333,256.411H147.456c1.493,4.224,2.155,8.768,1.749,13.419c-0.107,1.259-0.32,2.773-0.469,4.117
			c14.08,0.875,27.989,2.176,39.189,3.2l5.995,0.555c0.085,0,0.192,0.043,0.277,0.043h307.136c5.888,0,10.667-4.779,10.667-10.667
			S507.221,256.411,501.333,256.411z"/>
	</g>
</g>
<g>
	<g>
		<path d="M448,373.915l-74.667,31.872c-20.672,1.003-63.659-0.341-74.667-0.192c-10.837,0.149-66.24-17.621-57.557-21.141
			c1.813-0.747,6.443-0.896,14.891-0.192c48.725,4.053,128,13.867,128-21.333s-85.909-42.667-106.667-42.667
			S221.781,301.638,192,298.928c-11.84-1.067-28.096-2.688-44.608-3.712c-6.741,45.867-26.389,112.341-36.501,144.853L224,491.227
			c42.325,16,71.104,36.437,160,0c0,0,128-54.336,128-85.333C512,380.251,482.667,361.904,448,373.915z"/>
	</g>
</g>
<g>
</g>
<g>
</g>
<g>
</g>
<g>
</g>
<g>
</g>
<g>
</g>
<g>
</g>
<g>
</g>
<g>
</g>
<g>
</g>
<g>
</g>
<g>
</g>
<g>
</g>
<g>
</g>
<g>
</g>
</svg>
